<svg width="198" height="296" viewBox="0 0 198 296" fill="none" xmlns="http://www.w3.org/2000/svg">
<path d="M64.662 17.5007C71.429 15.8267 82.959 13.8117 95.487 13.2237C108.032 12.6347 121.473 13.4837 132.122 17.4667L132.823 15.5937C121.8 11.4717 108.043 10.6327 95.394 11.2257C82.728 11.8197 71.068 13.8567 64.182 15.5597L64.662 17.5007ZM166.564 34.5497C166.803 35.9817 166.838 38.1657 166.071 40.0117C165.68 40.9517 165.065 41.8427 164.127 42.4727C163.182 43.1077 161.99 43.4237 160.548 43.3477C158.554 43.2427 156.833 41.8947 155.37 40.2737C153.882 38.6247 152.475 36.4817 151.149 34.4297C151.061 34.2937 150.973 34.1577 150.886 34.0227C149.635 32.0847 148.457 30.2587 147.289 28.8787C146.668 28.1447 146.083 27.5787 145.533 27.2017C144.985 26.8267 144.524 26.6737 144.125 26.6737C141.045 26.6737 137.723 24.5307 135.272 21.5797C132.794 18.5957 131.011 14.5637 131.19 10.4397L133.188 10.5267C133.035 14.0357 134.566 17.5977 136.811 20.3017C139.083 23.0377 141.895 24.6737 144.125 24.6737C145.053 24.6737 145.905 25.0317 146.664 25.5517C147.42 26.0697 148.136 26.7837 148.816 27.5867C150.071 29.0707 151.318 31.0037 152.544 32.9037C152.639 33.0507 152.734 33.1977 152.829 33.3447C154.17 35.4197 155.493 37.4247 156.855 38.9337C158.242 40.4707 159.493 41.2897 160.653 41.3507C161.734 41.4077 162.482 41.1697 163.012 40.8127C163.55 40.4517 163.946 39.9137 164.224 39.2437C164.795 37.8697 164.795 36.1037 164.591 34.8797L166.564 34.5497ZM31.3 34.5497C31.061 35.9817 31.026 38.1657 31.793 40.0117C32.184 40.9517 32.799 41.8427 33.737 42.4727C34.682 43.1077 35.874 43.4237 37.316 43.3477C39.31 43.2427 41.031 41.8947 42.494 40.2737C43.982 38.6247 45.39 36.4817 46.716 34.4297C46.804 34.2937 46.892 34.1577 46.979 34.0227C48.23 32.0847 49.408 30.2587 50.576 28.8787C51.197 28.1447 51.781 27.5787 52.331 27.2017C52.879 26.8267 53.341 26.6737 53.74 26.6737C56.82 26.6737 60.141 24.5307 62.592 21.5797C65.07 18.5957 66.853 14.5637 66.674 10.4397L64.676 10.5267C64.829 14.0357 63.299 17.5977 61.054 20.3017C58.782 23.0377 55.97 24.6737 53.74 24.6737C52.812 24.6737 51.96 25.0317 51.201 25.5517C50.445 26.0697 49.729 26.7837 49.049 27.5867C47.794 29.0707 46.546 31.0037 45.32 32.9037C45.225 33.0507 45.131 33.1977 45.036 33.3447C43.695 35.4197 42.372 37.4247 41.01 38.9337C39.623 40.4707 38.371 41.2897 37.211 41.3507C36.13 41.4077 35.383 41.1697 34.853 40.8127C34.315 40.4517 33.918 39.9137 33.64 39.2437C33.069 37.8697 33.069 36.1037 33.273 34.8797L31.3 34.5497ZM154.32 323.831C154.32 322.737 153.286 321.901 152.182 322.138C140.06 324.745 117.137 328.241 98.276 328.948L98.201 326.95C116.924 326.249 139.729 322.769 151.761 320.182C154.076 319.684 156.32 321.428 156.32 323.831V382.507C156.32 384.149 155.237 385.61 153.632 386.045C142.516 389.059 118.453 394.175 96.83 394.175V392.175C118.205 392.175 142.076 387.106 153.108 384.115C153.821 383.922 154.32 383.267 154.32 382.507V323.831ZM42.92 323.831C42.92 322.737 43.954 321.901 45.058 322.138C57.18 324.745 80.102 328.241 98.963 328.948L99.038 326.95C80.315 326.249 57.51 322.769 45.478 320.182C43.163 319.684 40.92 321.428 40.92 323.831V382.507C40.92 384.149 42.003 385.61 43.608 386.045C54.724 389.059 78.786 394.175 100.409 394.175V392.175C79.034 392.175 55.163 387.106 44.131 384.115C43.418 383.922 42.92 383.267 42.92 382.507V323.831ZM168.654 234.187C169.736 233.833 170.849 234.639 170.849 235.778V327.221C170.849 328.792 168.761 329.594 167.831 328.107C163.994 321.968 157.73 309.013 156.124 294.202L156.118 294.148V239.499C156.118 238.775 156.584 238.133 157.272 237.908L168.654 234.187ZM168.849 325.931V236.228L158.118 239.736V294.04C159.6 307.601 165.102 319.601 168.849 325.931ZM168.212 125.089C168.642 123.133 171.521 123.446 171.521 125.449V219.883C171.521 221.242 170.776 222.491 169.58 223.136L161.071 227.727C158.608 229.056 155.619 227.271 155.619 224.473V182.822C155.619 182.555 155.648 182.289 155.705 182.029L168.212 125.089ZM169.521 219.883V128.451L157.658 182.458C157.632 182.578 157.619 182.7 157.619 182.822V224.473C157.619 225.757 158.991 226.577 160.121 225.967L168.63 221.376C169.179 221.08 169.521 220.507 169.521 219.883ZM169.201 303.764L156.615 294.998L157.759 293.357L170.344 302.123L169.201 303.764ZM28.572 234.185C27.49 233.831 26.378 234.637 26.378 235.776V327.219C26.378 328.79 28.466 329.592 29.396 328.105C33.233 321.966 39.496 309.011 41.102 294.2L41.108 294.146V239.497C41.108 238.773 40.642 238.131 39.954 237.906L28.572 234.185ZM28.378 325.929V236.225L39.108 239.733V294.037C37.626 307.598 32.125 319.599 28.378 325.929ZM29.02 125.087C28.59 123.131 25.711 123.443 25.711 125.446V219.88C25.711 221.239 26.456 222.489 27.652 223.134L36.162 227.724C38.625 229.053 41.613 227.269 41.613 224.471V182.819C41.613 182.552 41.584 182.286 41.527 182.026L29.02 125.087ZM27.711 219.88V128.448L39.574 182.455C39.6 182.575 39.613 182.697 39.613 182.819V224.471C39.613 225.755 38.241 226.574 37.111 225.964L28.602 221.374C28.053 221.078 27.711 220.504 27.711 219.88ZM28.032 303.76L40.617 294.994L39.474 293.353L26.889 302.119L28.032 303.76ZM155.713 92.5287C144.196 87.6517 123.231 81.2707 98.729 80.9807L98.752 78.9807C123.566 79.2747 144.789 85.7307 156.493 90.6867C160.904 92.5547 163.667 96.7657 164.202 101.43L165.461 112.402C165.625 113.827 165.576 115.268 165.316 116.679L157.058 161.473C155.737 168.641 149.294 173.71 142.016 173.308L98.619 170.911L98.729 168.914L142.126 171.311C148.399 171.658 153.952 167.289 155.091 161.111L163.349 116.317C163.573 115.101 163.615 113.858 163.474 112.63L162.215 101.658C161.751 97.6127 159.374 94.0787 155.713 92.5287ZM41.636 92.5287C53.153 87.6517 74.118 81.2707 98.62 80.9807L98.596 78.9807C73.782 79.2747 52.56 85.7307 40.856 90.6867C36.445 92.5547 33.681 96.7657 33.146 101.43L31.887 112.402C31.723 113.827 31.773 115.268 32.033 116.679L40.291 161.473C41.612 168.641 48.055 173.71 55.333 173.308L98.73 170.911L98.62 168.914L55.223 171.311C48.95 171.658 43.397 167.289 42.258 161.111L34 116.317C33.776 115.101 33.733 113.858 33.874 112.63L35.133 101.658C35.597 97.6127 37.975 94.0787 41.636 92.5287ZM108.645 3.51767C105.394 2.90067 102.091 2.59067 98.782 2.59067H93.895V0.590668H98.782C102.216 0.590668 105.644 0.912659 109.018 1.55266L115.334 2.75066C119.935 3.62366 124.406 5.07967 128.637 7.08667L150.493 17.4517C151.975 18.1547 153.402 18.9697 154.761 19.8887C160.544 23.8007 164.907 29.4777 167.201 36.0717L171.26 47.7397L174.259 55.2387C176.854 61.7267 178.188 68.6517 178.188 75.6397V100.121C178.188 103.145 177.914 106.163 177.371 109.137L176.722 112.689C176.632 113.181 176.587 113.681 176.587 114.182V123.258C176.587 124.228 177.515 124.928 178.448 124.662C178.918 124.528 179.41 124.494 179.893 124.564L182.846 124.991C185.436 125.365 187.95 126.295 190.106 127.844C192.474 129.545 194.356 131.143 196.614 133.708C197.244 134.424 197.572 135.341 197.572 136.273C197.572 138.947 194.976 140.854 192.424 140.053L188.166 138.717C187.597 138.538 187.052 138.29 186.544 137.978L177.154 132.211C176.92 132.067 176.62 132.238 176.624 132.513L178.493 256.73V339.1L171.412 390.385C170.411 397.637 167.217 404.41 162.258 409.796C157.14 415.355 150.4 419.157 142.996 420.663L123.437 424.641L123.436 424.642L109.413 427.517C105.782 428.262 102.085 428.637 98.379 428.637H93.661V426.637H98.379C101.95 426.637 105.512 426.275 109.011 425.558L123.036 422.682H123.037L142.598 418.704C149.59 417.282 155.954 413.69 160.787 408.441C165.469 403.355 168.485 396.959 169.431 390.111L176.493 338.963V256.738L174.624 132.543C174.596 130.691 176.623 129.537 178.201 130.506L187.591 136.274C187.959 136.5 188.353 136.68 188.765 136.809L193.023 138.145C194.286 138.541 195.572 137.597 195.572 136.273C195.572 135.806 195.407 135.364 195.113 135.03C192.97 132.596 191.205 131.097 188.939 129.469C187.074 128.129 184.871 127.304 182.56 126.97L179.607 126.543C179.403 126.514 179.195 126.528 178.997 126.585C176.787 127.216 174.587 125.557 174.587 123.258V114.182C174.587 113.561 174.643 112.94 174.755 112.329L175.404 108.777C175.926 105.921 176.188 103.024 176.188 100.121V75.6397C176.188 68.9057 174.903 62.2337 172.402 55.9817L169.386 48.4397L165.312 36.7287C163.16 30.5417 159.067 25.2157 153.641 21.5457C152.366 20.6837 151.027 19.9187 149.636 19.2587L127.78 8.89467C123.703 6.96167 119.395 5.55666 114.962 4.71567L108.645 3.51767ZM94.133 2.57367L93.76 0.608658L82.464 2.75066C77.863 3.62366 73.392 5.08066 69.161 7.08766L47.305 17.4517C45.823 18.1547 44.396 18.9697 43.037 19.8887C37.254 23.8007 32.891 29.4777 30.597 36.0717L26.538 47.7397L23.539 55.2397C20.944 61.7277 19.61 68.6517 19.61 75.6397V100.121C19.61 103.145 19.884 106.163 20.427 109.137L21.076 112.689C21.166 113.182 21.211 113.681 21.211 114.182V123.258C21.211 124.228 20.283 124.928 19.35 124.662C18.88 124.528 18.388 124.494 17.905 124.564L14.952 124.991C12.362 125.365 9.848 126.296 7.69201 127.845C5.32401 129.546 3.44201 131.143 1.18401 133.708C0.554008 134.424 0.226013 135.341 0.226013 136.273C0.226013 138.947 2.822 140.854 5.37401 140.053L9.63201 138.717C10.201 138.538 10.746 138.29 11.254 137.978L20.644 132.211C20.878 132.067 21.178 132.238 21.174 132.513L19.305 256.73V339.1L26.386 390.385C27.387 397.637 30.581 404.41 35.54 409.796C40.658 415.355 47.398 419.157 54.802 420.663L74.361 424.641L74.362 424.642L93.746 428.616L94.148 426.657L74.762 422.682H74.761L55.2 418.704C48.208 417.282 41.844 413.69 37.011 408.441C32.329 403.355 29.313 396.959 28.367 390.111L21.305 338.963V256.738L23.174 132.543C23.202 130.691 21.175 129.537 19.597 130.506L10.207 136.274C9.83901 136.5 9.445 136.68 9.03301 136.809L4.77501 138.145C3.51201 138.541 2.22601 137.597 2.22601 136.273C2.22601 135.806 2.39101 135.364 2.68501 135.03C4.82801 132.596 6.59301 131.097 8.859 129.469C10.724 128.129 12.927 127.304 15.238 126.97L18.191 126.544C18.395 126.515 18.603 126.528 18.801 126.585C21.011 127.216 23.211 125.557 23.211 123.258V114.182C23.211 113.561 23.155 112.94 23.043 112.329L22.394 108.777C21.872 105.921 21.61 103.024 21.61 100.121V75.6397C21.61 68.9057 22.895 62.2337 25.396 55.9817L28.412 48.4397L32.486 36.7287C34.638 30.5417 38.731 25.2157 44.157 21.5457C45.432 20.6837 46.771 19.9197 48.162 19.2597L70.018 8.89467C74.095 6.96167 78.403 5.55666 82.836 4.71567L94.133 2.57367Z" fill="#FFEA30"/>
</svg>
