<svg width="199" height="399" viewBox="0 0 199 399" fill="none" xmlns="http://www.w3.org/2000/svg">
<path d="M133.754 381.115C126.987 382.789 115.457 384.804 102.929 385.392C90.3837 385.981 76.9427 385.132 66.2937 381.149L65.5927 383.022C76.6157 387.144 90.3727 387.983 103.022 387.39C115.688 386.796 127.348 384.759 134.234 383.056L133.754 381.115ZM31.8517 364.066C31.6127 362.634 31.5777 360.45 32.3447 358.604C32.7357 357.664 33.3507 356.773 34.2887 356.143C35.2337 355.508 36.4257 355.192 37.8677 355.268C39.8617 355.373 41.5827 356.721 43.0457 358.342C44.5337 359.991 45.9407 362.134 47.2667 364.186C47.3547 364.322 47.4427 364.458 47.5297 364.593C48.7807 366.531 49.9587 368.357 51.1267 369.737C51.7477 370.471 52.3327 371.037 52.8827 371.414C53.4307 371.789 53.8917 371.942 54.2907 371.942C57.3707 371.942 60.6927 374.085 63.1437 377.036C65.6217 380.02 67.4047 384.052 67.2257 388.176L65.2277 388.089C65.3807 384.58 63.8497 381.018 61.6047 378.314C59.3327 375.578 56.5207 373.942 54.2907 373.942C53.3627 373.942 52.5107 373.584 51.7517 373.064C50.9957 372.546 50.2797 371.832 49.5997 371.029C48.3447 369.545 47.0977 367.612 45.8717 365.712C45.7767 365.565 45.6817 365.418 45.5867 365.271C44.2457 363.196 42.9227 361.191 41.5607 359.682C40.1737 358.145 38.9227 357.326 37.7627 357.265C36.6817 357.208 35.9337 357.446 35.4037 357.803C34.8657 358.164 34.4697 358.702 34.1917 359.372C33.6207 360.746 33.6207 362.512 33.8247 363.736L31.8517 364.066ZM167.116 364.066C167.355 362.634 167.39 360.45 166.623 358.604C166.232 357.664 165.617 356.773 164.679 356.143C163.734 355.508 162.542 355.192 161.1 355.268C159.106 355.373 157.385 356.721 155.922 358.342C154.434 359.991 153.026 362.134 151.7 364.186C151.612 364.322 151.524 364.458 151.437 364.593C150.186 366.531 149.008 368.357 147.84 369.737C147.219 370.471 146.635 371.037 146.085 371.414C145.537 371.789 145.075 371.942 144.676 371.942C141.596 371.942 138.275 374.085 135.824 377.036C133.346 380.02 131.563 384.052 131.742 388.176L133.74 388.089C133.587 384.58 135.117 381.018 137.362 378.314C139.634 375.578 142.446 373.942 144.676 373.942C145.604 373.942 146.456 373.584 147.215 373.064C147.971 372.546 148.687 371.832 149.367 371.029C150.622 369.545 151.87 367.612 153.096 365.712C153.191 365.565 153.285 365.418 153.38 365.271C154.721 363.196 156.044 361.191 157.406 359.682C158.793 358.145 160.045 357.326 161.205 357.265C162.286 357.208 163.033 357.446 163.563 357.803C164.101 358.164 164.498 358.702 164.776 359.372C165.347 360.746 165.347 362.512 165.143 363.736L167.116 364.066ZM44.0957 74.785C44.0957 75.879 45.1297 76.715 46.2337 76.478C58.3557 73.871 81.2787 70.375 100.14 69.668L100.215 71.666C81.4917 72.367 58.6867 75.847 46.6547 78.434C44.3397 78.932 42.0957 77.188 42.0957 74.785V16.109C42.0957 14.467 43.1787 13.006 44.7837 12.571C55.8997 9.55701 79.9627 4.44101 101.586 4.44101V6.44101C80.2107 6.44101 56.3397 11.51 45.3077 14.501C44.5947 14.694 44.0957 15.349 44.0957 16.109V74.785ZM155.496 74.785C155.496 75.879 154.462 76.715 153.358 76.478C141.236 73.871 118.314 70.375 99.4527 69.668L99.3777 71.666C118.101 72.367 140.906 75.847 152.938 78.434C155.253 78.932 157.496 77.188 157.496 74.785V16.109C157.496 14.467 156.413 13.006 154.808 12.571C143.692 9.55701 119.63 4.44101 98.0067 4.44101V6.44101C119.382 6.44101 143.253 11.51 154.285 14.501C154.998 14.694 155.496 15.349 155.496 16.109V74.785ZM29.7617 164.429C28.6797 164.783 27.5667 163.977 27.5667 162.838V71.395C27.5667 69.824 29.6547 69.022 30.5847 70.509C34.4217 76.648 40.6857 89.603 42.2917 104.414L42.2977 104.468V159.117C42.2977 159.841 41.8317 160.483 41.1437 160.708L29.7617 164.429ZM29.5667 72.685V162.388L40.2977 158.88V104.576C38.8157 91.015 33.3137 79.015 29.5667 72.685ZM30.2037 273.527C29.7737 275.483 26.8947 275.17 26.8947 273.167V178.733C26.8947 177.374 27.6397 176.125 28.8357 175.48L37.3447 170.889C39.8077 169.56 42.7967 171.345 42.7967 174.143V215.794C42.7967 216.061 42.7677 216.327 42.7107 216.587L30.2037 273.527ZM28.8947 178.733V270.165L40.7577 216.158C40.7837 216.038 40.7967 215.916 40.7967 215.794V174.143C40.7967 172.859 39.4247 172.039 38.2947 172.649L29.7857 177.24C29.2367 177.536 28.8947 178.109 28.8947 178.733ZM29.2147 94.852L41.8007 103.618L40.6567 105.259L28.0717 96.493L29.2147 94.852ZM169.844 164.431C170.926 164.785 172.038 163.979 172.038 162.84V71.397C172.038 69.826 169.95 69.024 169.02 70.511C165.183 76.65 158.92 89.605 157.314 104.416L157.308 104.47V159.119C157.308 159.843 157.774 160.485 158.462 160.71L169.844 164.431ZM170.038 72.687V162.391L159.308 158.883V104.579C160.79 91.018 166.291 79.017 170.038 72.687ZM169.396 273.529C169.826 275.485 172.705 275.173 172.705 273.17V178.736C172.705 177.377 171.96 176.127 170.764 175.482L162.254 170.892C159.791 169.563 156.803 171.347 156.803 174.145V215.797C156.803 216.064 156.832 216.33 156.889 216.59L169.396 273.529ZM170.705 178.736V270.168L158.842 216.161C158.816 216.041 158.803 215.919 158.803 215.797V174.145C158.803 172.861 160.175 172.042 161.305 172.652L169.814 177.242C170.363 177.538 170.705 178.112 170.705 178.736ZM170.384 94.856L157.799 103.622L158.942 105.263L171.527 96.497L170.384 94.856ZM42.7027 306.087C54.2197 310.964 75.1847 317.345 99.6867 317.635L99.6637 319.635C74.8497 319.341 53.6267 312.885 41.9227 307.929C37.5117 306.061 34.7487 301.85 34.2137 297.186L32.9547 286.214C32.7907 284.789 32.8397 283.348 33.0997 281.937L41.3577 237.143C42.6787 229.975 49.1217 224.906 56.3997 225.308L99.7967 227.705L99.6867 229.702L56.2897 227.305C50.0167 226.958 44.4637 231.327 43.3247 237.505L35.0667 282.299C34.8427 283.515 34.8007 284.758 34.9417 285.986L36.2007 296.958C36.6647 301.003 39.0417 304.537 42.7027 306.087ZM156.78 306.087C145.263 310.964 124.298 317.345 99.7957 317.635L99.8197 319.635C124.634 319.341 145.856 312.885 157.56 307.929C161.971 306.061 164.735 301.85 165.27 297.186L166.529 286.214C166.693 284.789 166.643 283.348 166.383 281.937L158.125 237.143C156.804 229.975 150.361 224.906 143.083 225.308L99.6857 227.705L99.7957 229.702L143.193 227.305C149.466 226.958 155.019 231.327 156.158 237.505L164.416 282.299C164.64 283.515 164.683 284.758 164.542 285.986L163.283 296.958C162.819 301.003 160.441 304.537 156.78 306.087ZM89.7707 395.098C93.0217 395.715 96.3247 396.025 99.6337 396.025H104.521V398.025H99.6337C96.1997 398.025 92.7717 397.703 89.3977 397.063L83.0817 395.865C78.4807 394.992 74.0097 393.536 69.7787 391.529L47.9227 381.164C46.4407 380.461 45.0137 379.646 43.6547 378.727C37.8717 374.815 33.5087 369.138 31.2147 362.544L27.1557 350.876L24.1567 343.377C21.5617 336.889 20.2277 329.964 20.2277 322.976V298.495C20.2277 295.471 20.5017 292.453 21.0447 289.479L21.6937 285.927C21.7837 285.435 21.8287 284.935 21.8287 284.434V275.358C21.8287 274.388 20.9007 273.688 19.9677 273.954C19.4977 274.088 19.0057 274.122 18.5227 274.052L15.5697 273.625C12.9797 273.251 10.4657 272.321 8.30971 270.772C5.94171 269.071 4.05971 267.473 1.80171 264.908C1.17171 264.192 0.843719 263.275 0.843719 262.343C0.843719 259.669 3.43971 257.762 5.99171 258.563L10.2497 259.899C10.8187 260.078 11.3637 260.326 11.8717 260.638L21.2617 266.405C21.4957 266.549 21.7957 266.378 21.7917 266.103L19.9227 141.886V59.516L27.0037 8.23099C28.0047 0.978973 31.1987 -5.79404 36.1577 -11.18C41.2757 -16.739 48.0157 -20.541 55.4197 -22.047L74.9787 -26.025L74.9797 -26.026L89.0027 -28.901C92.6337 -29.646 96.3307 -30.021 100.037 -30.021H104.755V-28.021H100.037C96.4657 -28.021 92.9037 -27.659 89.4047 -26.942L75.3797 -24.066H75.3787L55.8177 -20.088C48.8257 -18.666 42.4617 -15.074 37.6287 -9.82498C32.9467 -4.73898 29.9307 1.65698 28.9847 8.505L21.9227 59.653V141.878L23.7917 266.073C23.8197 267.925 21.7927 269.079 20.2147 268.11L10.8247 262.342C10.4567 262.116 10.0627 261.936 9.65071 261.807L5.39272 260.471C4.12971 260.075 2.84372 261.019 2.84372 262.343C2.84372 262.81 3.00871 263.252 3.30272 263.586C5.44572 266.02 7.21071 267.519 9.47672 269.147C11.3417 270.487 13.5447 271.312 15.8557 271.646L18.8087 272.073C19.0127 272.102 19.2207 272.088 19.4187 272.031C21.6287 271.4 23.8287 273.059 23.8287 275.358V284.434C23.8287 285.055 23.7727 285.676 23.6607 286.287L23.0117 289.839C22.4897 292.695 22.2277 295.592 22.2277 298.495V322.976C22.2277 329.71 23.5127 336.382 26.0137 342.634L29.0297 350.176L33.1037 361.887C35.2557 368.074 39.3487 373.4 44.7747 377.07C46.0497 377.932 47.3887 378.697 48.7797 379.357L70.6357 389.721C74.7127 391.654 79.0207 393.059 83.4537 393.9L89.7707 395.098ZM104.283 396.042L104.656 398.007L115.952 395.865C120.553 394.992 125.024 393.535 129.255 391.528L151.111 381.164C152.593 380.461 154.02 379.646 155.379 378.727C161.162 374.815 165.525 369.138 167.819 362.544L171.878 350.876L174.877 343.376C177.472 336.888 178.806 329.964 178.806 322.976V298.495C178.806 295.471 178.532 292.453 177.989 289.479L177.34 285.927C177.25 285.434 177.205 284.935 177.205 284.434V275.358C177.205 274.388 178.133 273.688 179.066 273.954C179.536 274.088 180.028 274.122 180.511 274.052L183.464 273.625C186.054 273.251 188.568 272.32 190.724 270.771C193.092 269.07 194.974 267.473 197.232 264.908C197.862 264.192 198.19 263.275 198.19 262.343C198.19 259.669 195.594 257.762 193.042 258.563L188.784 259.899C188.215 260.078 187.67 260.326 187.162 260.638L177.772 266.405C177.538 266.549 177.238 266.378 177.242 266.103L179.111 141.886V59.516L172.03 8.23099C171.029 0.978973 167.835 -5.79404 162.876 -11.18C157.758 -16.739 151.018 -20.541 143.614 -22.047L124.055 -26.025L124.054 -26.026L104.67 -30L104.268 -28.041L123.654 -24.066H123.655L143.216 -20.088C150.208 -18.666 156.572 -15.074 161.405 -9.82498C166.087 -4.73898 169.103 1.65698 170.049 8.505L177.111 59.653V141.878L175.242 266.073C175.214 267.925 177.241 269.079 178.819 268.11L188.209 262.342C188.577 262.116 188.971 261.936 189.383 261.807L193.641 260.471C194.904 260.075 196.19 261.019 196.19 262.343C196.19 262.81 196.025 263.252 195.731 263.586C193.588 266.02 191.823 267.519 189.557 269.147C187.692 270.487 185.489 271.312 183.178 271.646L180.225 272.072C180.021 272.101 179.813 272.088 179.615 272.031C177.405 271.4 175.205 273.059 175.205 275.358V284.434C175.205 285.055 175.261 285.676 175.373 286.287L176.022 289.839C176.544 292.695 176.806 295.592 176.806 298.495V322.976C176.806 329.71 175.521 336.382 173.02 342.634L170.004 350.176L165.93 361.887C163.778 368.074 159.685 373.4 154.259 377.07C152.984 377.932 151.645 378.696 150.254 379.356L128.398 389.721C124.321 391.654 120.013 393.059 115.58 393.9L104.283 396.042Z" fill="#FFEA30"/>
</svg>
